<svg xmlns="http://www.w3.org/2000/svg" xmlns:xlink="http://www.w3.org/1999/xlink" width="256" zoomAndPan="magnify" viewBox="0 0 192 95.999999" height="128" preserveAspectRatio="xMidYMid meet" version="1.0"><defs><g/></defs><g fill="#000000" fill-opacity="1"><g transform="translate(6.766167, 66.548074)"><g><path d="M 16.402344 -5.277344 C 12.921875 -5.132812 5.527344 -5.492188 5.527344 -14.359375 C 5.527344 -21.179688 10.160156 -23.796875 16.402344 -23.476562 L 16.402344 -17.121094 L 21.894531 -17.121094 L 21.894531 -28.394531 C 21.894531 -28.535156 21.753906 -28.714844 21.5 -28.714844 L 16.835938 -28.714844 C 9.800781 -28.714844 0 -27.101562 0 -14.359375 C 0 -2.082031 9.691406 0 16.835938 0 L 21.5 0 C 21.753906 0 21.894531 -0.179688 21.894531 -0.324219 L 21.894531 -5.277344 Z M 16.402344 -5.277344 "/></g></g></g><g fill="#000000" fill-opacity="1"><g transform="translate(29.774592, 66.548074)"><g><path d="M 21.179688 -28.714844 L 16.511719 -28.714844 C 16.261719 -28.714844 16.117188 -28.535156 16.117188 -28.394531 L 16.117188 -9.582031 C 16.117188 -6.675781 13.460938 -5.277344 10.769531 -5.277344 C 8.113281 -5.277344 5.742188 -6.785156 5.421875 -9.621094 L 5.421875 -23.511719 L 0 -23.511719 L 0 -9.582031 C 0 -3.660156 4.847656 0 10.769531 0 C 16.871094 0 21.535156 -3.519531 21.535156 -9.582031 L 21.535156 -28.394531 C 21.535156 -28.535156 21.359375 -28.714844 21.179688 -28.714844 Z M 21.179688 -28.714844 "/></g></g></g><g fill="#000000" fill-opacity="1"><g transform="translate(52.388173, 66.548074)"><g><path d="M 25.699219 -6.929688 L 31.15625 -6.929688 L 31.15625 -28.394531 C 31.15625 -28.535156 31.011719 -28.714844 30.761719 -28.714844 L 26.023438 -28.714844 C 25.878906 -28.714844 25.699219 -28.609375 25.628906 -28.5 L 15.828125 -7.464844 L 5.527344 -28.5 C 5.492188 -28.609375 5.277344 -28.714844 5.167969 -28.714844 L 0.359375 -28.714844 C 0.109375 -28.714844 0 -28.535156 0 -28.394531 L 0 -0.324219 C 0 -0.179688 0.109375 0 0.359375 0 L 5.097656 0 C 5.3125 0 5.492188 -0.179688 5.492188 -0.324219 L 5.492188 -16.441406 L 13.28125 -1.363281 C 13.316406 -1.257812 13.53125 -1.148438 13.640625 -1.148438 L 18.054688 -1.148438 C 18.164062 -1.148438 18.34375 -1.257812 18.378906 -1.363281 L 25.699219 -16.046875 Z M 25.699219 -6.929688 "/></g></g></g><g fill="#000000" fill-opacity="1"><g transform="translate(85.124019, 66.548074)"><g><path d="M 21.179688 -28.714844 L 16.511719 -28.714844 C 16.261719 -28.714844 16.117188 -28.535156 16.117188 -28.394531 L 16.117188 -9.582031 C 16.117188 -6.675781 13.460938 -5.277344 10.769531 -5.277344 C 8.113281 -5.277344 5.742188 -6.785156 5.421875 -9.621094 L 5.421875 -23.511719 L 0 -23.511719 L 0 -9.582031 C 0 -3.660156 4.847656 0 10.769531 0 C 16.871094 0 21.535156 -3.519531 21.535156 -9.582031 L 21.535156 -28.394531 C 21.535156 -28.535156 21.359375 -28.714844 21.179688 -28.714844 Z M 21.179688 -28.714844 "/></g></g></g><g fill="#000000" fill-opacity="1"><g transform="translate(107.7376, 66.548074)"><g><path d="M 15.507812 -5.347656 L 0 -5.347656 L 0 -0.324219 C 0 -0.179688 0.179688 0 0.394531 0 L 15.507812 0 C 15.757812 0 15.902344 -0.179688 15.902344 -0.324219 L 15.902344 -4.988281 C 15.902344 -5.167969 15.757812 -5.347656 15.507812 -5.347656 Z M 5.492188 -10.839844 L 5.492188 -28.394531 C 5.492188 -28.535156 5.347656 -28.714844 5.132812 -28.714844 L 0.394531 -28.714844 C 0.179688 -28.714844 0 -28.535156 0 -28.394531 L 0 -10.839844 Z M 5.492188 -10.839844 "/></g></g></g><g fill="#000000" fill-opacity="1"><g transform="translate(124.464467, 66.548074)"><g><path d="M 21.179688 -28.714844 L 16.511719 -28.714844 C 16.261719 -28.714844 16.117188 -28.535156 16.117188 -28.394531 L 16.117188 -9.582031 C 16.117188 -6.675781 13.460938 -5.277344 10.769531 -5.277344 C 8.113281 -5.277344 5.742188 -6.785156 5.421875 -9.621094 L 5.421875 -23.511719 L 0 -23.511719 L 0 -9.582031 C 0 -3.660156 4.847656 0 10.769531 0 C 16.871094 0 21.535156 -3.519531 21.535156 -9.582031 L 21.535156 -28.394531 C 21.535156 -28.535156 21.359375 -28.714844 21.179688 -28.714844 Z M 21.179688 -28.714844 "/></g></g></g><g fill="#000000" fill-opacity="1"><g transform="translate(147.078048, 66.548074)"><g><path d="M 13.171875 -15.9375 C 11.128906 -16.90625 9.117188 -16.90625 8.9375 -16.90625 C 7.105469 -16.90625 5.347656 -17.984375 5.347656 -20.066406 C 5.347656 -22.363281 6.964844 -23.546875 8.9375 -23.546875 C 10.804688 -23.546875 12.382812 -22.578125 12.457031 -20.53125 C 12.457031 -20.425781 12.636719 -20.246094 12.851562 -20.246094 L 17.335938 -20.246094 C 17.589844 -20.246094 17.769531 -20.425781 17.730469 -20.53125 C 17.660156 -25.414062 13.855469 -28.714844 8.9375 -28.714844 C 4.34375 -28.714844 0 -25.449219 0 -20.066406 C 0 -16.726562 1.6875 -14.179688 4.667969 -12.816406 C 6.75 -11.84375 8.6875 -11.84375 8.9375 -11.84375 C 10.554688 -11.773438 12.527344 -10.480469 12.527344 -8.363281 C 12.527344 -6.460938 10.839844 -5.167969 8.9375 -5.167969 C 8.9375 -5.167969 8.9375 -5.167969 8.902344 -5.167969 L 8.902344 0 C 8.9375 0 8.9375 0 8.9375 0 C 13.53125 0 17.839844 -2.980469 17.839844 -8.363281 C 17.839844 -11.738281 16.1875 -14.539062 13.171875 -15.9375 Z M 13.171875 -15.9375 "/></g></g></g><g fill="#000000" fill-opacity="1"><g transform="translate(138.58688, 24.024843)"><g><path d="M 1.203125 -0.203125 L -0.453125 -10.34375 L 0.796875 -10.546875 L 1.5 -6.296875 L 6.53125 -7.109375 L 5.828125 -11.359375 L 7.078125 -11.5625 L 8.734375 -1.421875 L 7.484375 -1.21875 L 6.703125 -6 L 1.671875 -5.1875 L 2.453125 -0.40625 Z M 1.203125 -0.203125 "/></g></g></g><g fill="#000000" fill-opacity="1"><g transform="translate(148.757381, 22.445197)"><g><path d="M 2.375 0.421875 L 1.1875 -1.28125 L 2.484375 -8.5 L 4.171875 -9.703125 L 8.953125 -8.859375 L 10.140625 -7.140625 L 8.84375 0.078125 L 7.15625 1.265625 Z M 3.140625 -0.59375 L 6.796875 0.0625 L 7.6875 -0.546875 L 8.828125 -6.953125 L 8.203125 -7.84375 L 4.546875 -8.5 L 3.65625 -7.875 L 2.515625 -1.46875 Z M 3.140625 -0.59375 "/></g></g></g><g fill="#000000" fill-opacity="1"><g transform="translate(158.48774, 23.950062)"><g><path d="M 1.046875 0.640625 L 6.390625 -8.140625 L 7.859375 -7.25 L 6.359375 1.453125 L 13.40625 -3.875 L 14.890625 -2.984375 L 9.546875 5.796875 L 8.453125 5.140625 L 12.78125 -1.984375 L 5.59375 3.40625 L 4.984375 3.03125 L 6.453125 -5.8125 L 2.125 1.296875 Z M 1.046875 0.640625 "/></g></g></g><g fill="#000000" fill-opacity="1"><g transform="translate(168.97599, 30.736865)"><g><path d="M 0.75 0.953125 L 8.828125 -5.40625 L 13.03125 -0.078125 L 12.109375 0.640625 L 8.6875 -3.6875 L 6.234375 -1.75 L 9.296875 2.109375 L 8.390625 2.828125 L 5.328125 -1.03125 L 2.453125 1.234375 L 5.875 5.5625 L 4.953125 6.28125 Z M 0.75 0.953125 "/></g></g></g><g fill="#000000" fill-opacity="1"><g transform="translate(174.546712, 38.01199)"><g><path d="M 0.453125 1.140625 L 10.015625 -2.640625 L 10.46875 -1.46875 L 2 1.875 L 3.90625 6.6875 L 2.8125 7.125 Z M 0.453125 1.140625 "/></g></g></g><g fill="#000000" fill-opacity="1"><g transform="translate(177.618681, 45.648254)"><g><path d="M 0.015625 0.203125 L 10.53125 2.859375 L 10.6875 4.828125 L 0.703125 9.078125 L 0.59375 7.765625 L 3.1875 6.6875 L 2.84375 2.203125 L 0.125 1.53125 Z M 4 2.46875 L 4.28125 6.234375 L 9.421875 4.09375 L 9.390625 3.78125 Z M 4 2.46875 "/></g></g></g><g fill="#000000" fill-opacity="1"><g transform="translate(178.339844, 55.23106)"><g><path d="M -0.296875 1.1875 L 9.671875 3.71875 L 8.3125 9.046875 L 6.53125 10.09375 L 4.1875 9.5 L 3.515625 8.65625 L 2.0625 9.515625 L -0.71875 8.8125 L -1.78125 7.03125 Z M 5.171875 3.875 L 4.21875 7.609375 L 4.859375 8.34375 L 6.4375 8.75 L 7.375 8.21875 L 8.265625 4.65625 Z M 0.484375 2.6875 L -0.546875 6.765625 L 0 7.6875 L 2.046875 8.203125 L 3.0625 7.625 L 4.078125 3.59375 Z M 0.484375 2.6875 "/></g></g></g></svg>